<svg width="143" height="64" viewBox="0 0 143 64" fill="none" xmlns="http://www.w3.org/2000/svg">
<path d="M115.293 0H116.499L137.183 3.33913L139.223 3.8029L140.151 4.35942L140.707 4.82319L141.356 5.56522L141.913 6.4L142.47 7.51304L142.748 8.44058V10.5739L140.893 16.6957L139.316 21.7971L138.017 26.1565L137.554 28.1043L135.142 36.0812L133.472 41.5536L132.73 44.5217L130.875 50.6435L129.02 56.6725L128.371 58.8985L128 60.2899L127.443 61.3101L126.609 62.3304L125.681 63.1652L125.125 63.5362L124.012 63.9072L123.455 64H122.342L120.858 63.629L99.7101 57.4145L99.0608 57.1362L98.1333 56.3014L97.3913 55.3739L96.9275 54.3536L96.742 53.7043L96.6492 52.9623L96.5565 52.5913L96.6492 52.2203L94.7942 52.313H92.2898L89.971 52.2203L87.2811 51.3855L84.4985 50.5507L82.0869 49.8087L82.1797 48.3246L83.0145 40.9971L84.4058 28.9391L84.7768 24.3014L86.2608 11.5014L86.7246 11.3159L90.9913 11.0377L91.7333 8.44058L92.4753 6.77101L93.3101 5.47246L94.4231 4.17391L95.0724 3.61739L96.5565 2.87536L97.6695 2.5971H100.545L102.029 3.06087L103.049 3.52464L104.533 2.78261L105.275 2.5971H108.336L109.82 3.15362L110.748 3.71014L111.119 3.98841L111.304 2.96812L111.861 2.13333L112.232 1.66957L113.716 0.649275L114.829 0.0927536L115.293 0ZM98.5971 4.26667L97.484 4.45217L96.371 4.91594L95.5362 5.56522L94.7014 6.4L94.3304 6.95652L93.4029 9.27536L92.9391 10.7594V11.0377L98.226 10.6667L98.5971 9.92464L99.2463 8.06957L99.8956 6.77101L101.009 5.28696L101.38 4.91594V4.73043L100.267 4.35942L99.4318 4.26667H98.5971ZM106.296 4.26667L105.183 4.45217L104.348 4.82319L104.626 5.28696L105.275 6.12174L106.11 7.6058L107.038 10.1101L109.449 9.92464L109.82 9.08986L110.748 6.30725L110.655 5.93623L109.727 5.1942L108.614 4.54493L107.965 4.35942L107.223 4.26667H106.296ZM102.864 5.84348L102.029 6.77101L101.38 7.69855L100.452 9.46087L100.081 10.3884L100.174 10.5739L104.533 10.2957L105.09 10.2029L104.997 9.64638L104.441 8.16232L103.699 6.67826L103.049 5.84348H102.864Z" fill="#57B2E7"/>
<path d="M37.1017 19.6638H42.3887L42.4814 38.2145L42.6669 39.6986L43.2235 40.8116L43.78 41.1827L44.8003 41.4609L45.9133 41.5537L48.2322 41.4609L49.3452 41.1827L50.0872 40.7189L50.4582 39.9769L50.551 39.6986L50.6438 34.5044H55.7452L55.838 39.3276L56.0235 40.2551L56.4872 40.9972L57.1365 41.3682L58.3423 41.5537H59.2698L60.4756 41.3682L61.2177 40.9044L61.6814 40.1624L61.7742 39.6986L61.8669 34.5044H66.9684L67.0611 39.6986L67.3394 40.5334L67.8959 41.1827L68.638 41.4609L69.38 41.5537H70.4003L71.4206 41.2754L71.9771 40.9044L72.3481 40.4406L72.6264 39.6058V38.7711L72.3481 37.0087L71.7916 34.7827L71.6061 34.1334V33.7624L73.3684 33.1131L76.0583 32.1856H76.3365L76.9858 34.1334L77.4496 36.174L77.6351 37.4725L77.7278 38.7711V39.7914L77.5423 41.7392L77.0785 43.5015L76.3365 44.9856L75.5945 46.0058L74.9452 46.6551L73.6467 47.4899L72.4409 47.9537L71.0496 48.2319H68.2669L66.6901 47.8609L65.5771 47.3044L64.6496 46.4696L64.093 45.7276L63.722 44.8928L63.4438 45.1711L62.98 46.0986L62.0525 47.1189L61.1249 47.6754L60.1974 48.0464L59.2698 48.2319H56.7655L55.2814 47.8609L54.2611 47.3044L53.3336 46.4696L52.6843 45.4493L52.4988 44.8H52.3133L52.1278 45.4493L51.3858 46.4696L50.551 47.2116L49.2525 47.8609L47.5829 48.2319H44.6148L43.1307 47.9537L41.9249 47.4899L40.8119 46.7479L40.0698 46.0058L39.3278 44.8L39.1423 44.5218L38.493 45.7276L37.751 46.6551L36.7307 47.3972L35.7104 47.8609L34.6901 48.1392L34.1336 48.2319H31.351L29.8669 47.9537L28.3829 47.3044L27.3626 46.5624L26.7133 45.9131L25.8785 44.6145L25.322 43.1305L25.1365 42.2957H24.951L24.3945 43.4087L23.3742 44.5218L22.4467 45.1711L21.2409 45.6348L20.1278 45.8203H18.18L16.7887 45.5421L15.3046 44.9856L14.1916 44.2435L13.0785 43.1305L12.3365 41.8319L11.8727 40.6261L11.5945 39.1421V37.1015L11.8727 35.6174L12.3365 34.4116L12.9858 33.2058L14.0061 32L15.0264 31.0725L16.4177 30.145L18.18 29.2174L20.1278 28.4754L22.2611 27.8261L24.209 27.3624H24.3945V24.5798H29.4032L29.4959 39.2348L29.7742 40.1624L30.1452 40.8116L30.7017 41.1827L31.6293 41.4609L32.5568 41.5537H33.5771L35.3394 41.3682L36.2669 40.9044L36.7307 40.2551L37.009 39.1421L37.1017 19.6638ZM24.3017 33.2058L21.0554 33.8551L18.6438 34.5972L17.1597 35.3392L16.3249 35.9885L15.8611 36.7305L15.7684 37.287L16.0467 38.029L16.6032 38.4928L17.438 38.8638L18.3655 39.0493L19.293 39.1421H20.5916L22.1684 38.9566L23.4669 38.5856L24.3017 38.1218L24.3945 38.029V33.2058H24.3017Z" fill="#6B6097"/>
<path d="M115.293 5.00879H117.148L117.241 5.10154L118.076 5.1943L118.168 5.28705L119.838 5.56531L120.765 5.75082L120.858 5.84357L121.786 5.93633L121.971 6.02908L122.899 6.12183L122.991 6.21459L123.919 6.40009L124.568 6.49285L124.661 6.5856L125.589 6.67835L125.96 6.77111L126.423 6.86386L127.351 6.95662L127.815 7.14212L128.278 7.23488L129.113 7.42038L130.041 7.60589L130.968 7.69864L132.081 7.9769L133.473 8.25517L133.658 8.34792L134.586 8.44067L135.884 8.90444L136.812 9.73922L137.368 10.6668L137.461 10.7595L137.554 11.687L137.647 12.3363H137.461V13.3566L136.997 14.4697V14.9334L136.812 15.3044L136.719 15.7682L136.441 16.3247L136.255 17.2523L135.977 17.9943L135.513 19.6639L135.235 20.3131L135.049 21.2407L134.957 21.6117L134.586 22.5392L134.4 23.1885L133.844 24.9508L133.38 26.5276L133.102 27.1769L133.009 27.8262L132.916 27.9189L132.823 29.032L132.452 29.9595L132.36 30.145L132.267 30.7015L131.989 31.6291L131.618 32.9276L131.525 33.0204L131.432 33.6697L131.154 34.3189L130.876 35.3392L130.597 36.174L129.855 38.6784L129.484 39.8842L129.206 40.6262L128.928 41.6465L128.649 42.2957L128.464 43.2233L128.186 43.9653L128.093 44.6146L127.907 44.8001V45.4494L127.629 46.2841L127.536 46.9334L127.258 47.5827L126.887 49.0668L126.702 49.5305L126.609 49.9943L126.331 50.4581L126.238 51.1073L126.052 51.6639L125.867 52.3131L125.496 53.4262L125.218 54.5392L124.939 55.0957L124.661 56.2088L124.568 56.8581L124.383 57.0436L124.197 57.6001L123.548 58.7131L123.084 59.2697L122.713 59.6407L121.971 60.1044L121.507 60.2899H120.765V60.4755H119.931L119.281 60.1972L118.539 60.0117L117.983 59.8262L117.612 59.7334L115.942 59.1769L114.829 58.8986L113.902 58.6204L113.067 58.2494L111.861 57.9711L111.397 57.7856L110.841 57.6001L110.191 57.5073L109.449 57.1363L108.8 57.0436L107.965 56.6726L107.316 56.487L107.131 56.3943L106.667 56.3015L106.018 56.2088L105.368 55.9305L104.441 55.6523L103.791 55.5595L102.957 55.1885L102.215 54.9102L101.473 54.7247L100.36 54.0755L99.8031 53.4262L99.1538 52.1276H100.36L103.235 51.8494L107.038 51.2928L109.635 50.7363L112.418 49.9943L114.273 49.2523L115.386 48.6957L116.313 46.5624L117.055 44.7073L118.076 42.203L118.539 40.7189L120.023 37.1015L121.6 33.2986L122.991 29.9595L123.27 29.032V27.9189L122.806 24.487L121.136 14.8407L120.58 11.5943V11.316L119.467 11.2233L116.128 10.574L115.107 10.3885L114.736 9.64647L113.994 7.9769L113.252 6.49285L113.438 6.12183L114.273 5.47256L115.293 5.00879Z" fill="#EBE2FC"/>
<path d="M97.6698 2.59717H100.545L102.029 3.06094L103.05 3.5247L104.534 2.78268L105.276 2.59717H108.337L109.821 3.15369L110.748 3.71021L111.119 3.98847L111.305 3.61746L111.49 4.45224L112.603 5.56528L113.345 6.49282L114.458 8.71891L115.108 10.2957L119.096 11.0377L120.58 11.316L120.765 12.1508V12.7073L120.58 12.6146V14.0986L120.673 14.4696V15.9537L120.209 16.2319L119.838 16.7885L119.003 17.8088L118.632 18.3653L117.705 19.4783L117.148 20.1276L116.87 20.7769L116.313 21.2406H116.128L115.942 21.6117L115.386 21.7972V21.9827L114.922 22.4464L114.273 23.1885L113.902 23.6522H113.716L113.531 24.0233H113.345L113.16 24.3943L112.974 24.5798V25.0435L112.603 25.1363L112.418 25.6001L111.49 26.2493L111.026 26.7131L110.47 27.3624L110.006 27.6406L109.728 28.1044L109.264 28.4754L108.986 29.2175L108.615 29.3102L108.429 29.774L107.965 30.516L107.502 30.887H107.316L107.131 31.4435L106.76 31.8146L106.296 32.0928L105.739 32.5566L105.183 32.6493L104.997 33.1131L104.812 33.4841H104.626V33.6696L104.07 33.9479L103.792 34.5044L103.05 35.2464L102.957 35.5247L102.308 35.9885L101.844 36.2667L101.287 36.916L100.452 37.5653L99.8959 38.2146L99.6177 38.7711L99.1539 39.6059L98.6901 40.0696L98.2264 40.6262L97.7626 40.9044L97.2988 41.5537L96.3713 42.2957L95.9075 42.7595L95.2582 43.5015L94.609 43.7798L94.3307 44.2435L93.7742 44.4291L93.6814 44.6146L93.2177 44.8001L92.9394 45.3566L92.3829 46.0059L92.1046 46.7479L91.7336 46.8406V46.4696L91.4553 46.5624L91.3626 46.3769L91.1771 46.6551L90.7133 46.5624L90.5278 48.3247H90.4351V46.7479L90.6206 44.8001L90.8988 40.8117L91.0843 38.5856L91.1771 36.545L91.2698 35.7102L91.4553 32.7421L91.5481 30.516L91.7336 29.0319L91.8264 26.7131L92.1046 22.8175L92.2901 20.0348L92.3829 19.2001L92.4756 17.2522L92.5684 16.603L92.6611 14.8406L92.7539 14.5624L93.0322 14.4696V13.6348L93.2177 13.4493L97.5771 13.0783L97.8553 12.8001L98.3191 10.945V10.7595H97.1133V10.6667L98.2264 10.574L98.9684 8.71891L99.3394 7.60586L100.174 6.21456L101.009 5.19427L101.38 4.7305L100.267 4.45224L99.4322 4.35949H98.5974L97.4843 4.54499L96.3713 5.00876L95.5365 5.65804L94.7945 6.40007L94.4235 6.95659L93.4959 9.27543L92.9394 11.0377H91.0843L91.2698 10.0175L91.8264 8.25514L92.4756 6.77108L93.3104 5.47253L94.4235 4.17398L95.0727 3.61746L96.5568 2.87543L97.6698 2.59717ZM106.296 4.26673L105.183 4.45224L104.348 4.82325L104.626 5.28702L105.276 6.12181L106.11 7.60586L107.038 10.1102L109.45 9.9247L109.821 9.08992L110.748 6.30731L110.655 5.9363L109.728 5.19427L108.615 4.54499L107.965 4.35949L107.223 4.26673H106.296ZM102.864 5.84354L102.029 6.77108L101.38 7.69862L100.452 9.46094L100.081 10.3885L100.174 10.574L104.534 10.2957L105.09 10.203L104.997 9.64644L104.441 8.16238L103.699 6.67833L103.05 5.84354H102.864Z" fill="#57B2E7"/>
<path d="M115.292 0H116.498L137.182 3.33913L139.223 3.8029L140.15 4.35942L140.707 4.82319L141.356 5.56522L141.913 6.4L142.469 7.51304L142.747 8.44058V10.5739L140.892 16.6957L139.316 21.7971L138.017 26.1565L137.553 28.1043L135.142 36.0812L133.472 41.5536L132.73 44.5217L130.875 50.6435L129.02 56.6725L128.371 58.8985L128 60.2899L127.443 61.3101L126.608 62.3304L125.681 63.1652L125.124 63.5362L124.011 63.9072L123.455 64H122.342L120.858 63.629L99.7098 57.4145L99.0605 57.1362L98.133 56.3014L97.3909 55.3739L96.9272 54.3536L96.7417 53.7043L96.6489 52.9623L96.5562 52.5913L96.7417 52.1275H99.1533L99.8953 53.4261L100.359 53.9826L101.658 54.7246L102.4 54.9101L103.698 55.3739L103.791 55.4667L104.626 55.6522L105.924 56.0232L106.017 56.1159L106.666 56.2087L107.13 56.3014L108.985 57.0435H109.449L110.191 57.4145L110.84 57.5072L112.51 58.0638L113.159 58.2493L114.087 58.6203L115.2 58.8985L117.426 59.5478L117.704 59.7333H118.168L118.724 60.0116L119.837 60.2899L119.93 60.3826L120.765 60.4754V60.2899L121.507 60.1971L122.434 59.7333L122.898 59.4551L123.269 58.8985L123.918 57.971L124.197 57.5072L124.382 56.9507L124.475 56.487L124.753 55.6522L124.939 54.9101L125.124 54.5391L125.403 53.4261L125.774 52.313L125.959 51.6638L126.145 51.1072L126.237 50.458L126.608 49.8087V49.3449L126.794 49.0667L126.979 48.1391L127.258 47.4899L127.443 46.9333L127.536 46.2841L127.814 45.4493V44.8L128 44.6145L128.092 43.9652L128.371 43.2232L128.556 42.2957L128.834 41.6464L129.113 40.6261L129.391 39.8841L129.855 38.3072L130.597 35.9884L130.782 35.3391L131.06 34.3188L131.339 33.6696L131.432 33.0203L131.71 32.371L131.988 31.258L132.266 30.5159V30.0522L132.452 29.8667L132.73 29.0319L132.823 27.9188L132.916 27.8261L133.008 27.1768L133.287 26.5275L134.307 23.1884L134.585 22.3536L134.956 21.5188V20.9623L135.234 20.2203L135.605 19.1072L135.884 17.9942L136.162 17.2522L136.347 16.3246L136.718 15.5826V15.1188L136.904 14.9333L136.997 14.2841L137.368 13.3565L137.46 12.3362H137.646L137.46 11.687L137.368 10.7594L136.811 9.92464L136.162 9.18261L135.698 8.90435L134.585 8.53333L133.658 8.44058L132.73 8.16232L131.153 7.88406L130.968 7.7913L130.04 7.69855L128.927 7.42029L128.278 7.32754L127.814 7.23478L127.35 7.04927L126.423 6.95652L125.959 6.86377L124.66 6.67826L124.197 6.49275L123.64 6.4L122.991 6.30725L122.898 6.21449L121.971 6.12174L121.785 6.02899L120.858 5.93623L120.765 5.84348L119.095 5.56522L118.168 5.37971L118.075 5.28696L117.24 5.1942L117.147 5.10145H115.292L113.994 5.75072L113.345 6.30725L112.974 6.12174L111.675 4.73043L111.304 4.26667V2.96812L111.86 2.13333L112.232 1.66957L113.716 0.649275L114.829 0.0927536L115.292 0Z" fill="#6B6097"/>
<path d="M98.3188 10.6667L98.4116 10.945L97.9478 12.8001L97.5768 13.1711L93.2173 13.5421L93.1246 13.8204V14.4696L92.7536 14.5624L92.6608 16.603L92.5681 17.2523L92.4753 19.2001L92.2898 21.0552L92.0116 25.7856L91.9188 26.7131L91.826 29.032L91.6405 30.516L91.455 33.8552L91.3623 35.7102L91.2695 36.545L91.084 39.6059L90.8985 42.3885L90.6202 45.7276L90.5275 46.7479L90.4347 48.8812L90.342 49.4378L90.2492 52.0349L90.1565 52.1276H89.6L87.9304 51.5711L84.4985 50.5508L82.0869 49.8088L82.1797 48.3247L83.0145 40.9972L84.4058 28.9392L84.7768 24.3015L86.2608 11.5015L86.7246 11.316L90.9913 11.0378L92.0116 10.945H93.1246L95.7217 10.7595L98.3188 10.6667Z" fill="#5497BE"/>
<path d="M122.435 23.2812H122.62L122.899 24.487L123.363 27.9189V29.032L122.899 30.4233L121.415 33.9479L119.652 38.2146L118.539 40.9972L117.89 42.945L115.571 48.5102L115.2 48.8813L114.087 49.4378L112.418 50.087L109.635 50.8291L107.038 51.3856L106.574 51.4784L104.997 51.5711L102.586 51.8494L101.102 51.9421H99.3393L99.1538 51.5711L99.5248 51.3856L99.6176 51.0146L101.009 50.2726L101.102 49.8088L101.751 49.4378L102.122 48.6957L102.493 48.4175L103.142 48.1392L103.42 47.861L103.513 47.4899H103.699V47.2117L104.163 46.9334H104.348L104.441 46.6552L105.461 46.0059L106.018 45.8204L106.11 45.7276H106.667V45.5421H106.852L106.945 45.2639L107.223 44.9856L107.78 44.0581L108.244 43.687L108.893 42.945L109.82 42.0175L110.47 41.2755L111.305 40.3479L112.232 39.6986L112.696 39.2349L112.974 39.1421L113.16 38.7711L113.716 37.9363H113.902L113.994 37.5653L114.18 37.1943L114.736 36.7305L115.2 36.174L115.478 35.6175L115.849 35.1537L116.313 34.6899L116.591 34.1334L117.426 33.2059L118.168 32.6494L118.632 32.0001L118.725 31.5363L119.745 30.3305L120.209 29.774L120.673 29.4957H120.951L121.044 29.1247L121.786 29.032L122.157 28.9392L122.342 29.2175L122.62 29.3102L122.713 29.032H122.899V28.3827L122.713 27.5479V26.3421L122.528 24.487L122.435 24.0233V23.2812Z" fill="#57B2E7"/>
<path d="M140.151 4.6377L140.522 4.8232L141.45 5.65799L142.192 6.86378L142.563 7.79132L142.748 8.44059V10.5739L140.893 16.6957L139.316 21.7971L138.018 26.1565L137.554 28.1044L135.142 36.0812L133.473 41.5536L132.731 44.5218L130.876 50.6435L129.021 56.6725L128.371 58.8986L128 60.2899L127.444 61.3102L126.609 62.3305L125.682 63.1652L125.125 63.5362L124.012 63.9073L123.455 64H122.342L120.858 63.629L120.58 63.5362V63.258L121.693 63.0725L123.27 62.3305L124.197 61.6812L124.847 61.1247L125.218 60.1971L126.795 54.8174L127.351 52.8696L128.186 50.1797L130.968 40.9044L132.082 37.1015L133.287 33.1131L134.122 30.2377L134.864 27.8261L135.699 24.9507L136.905 20.9623L138.203 16.6029L139.131 13.542L139.873 10.9449L140.337 9.36813V6.029L140.151 5.28697V4.6377Z" fill="#57578E"/>
<path d="M97.67 2.59717H100.545L102.029 3.06094L103.05 3.5247L104.534 2.78268L105.276 2.59717H108.337L109.821 3.15369L110.748 3.71021L111.119 3.98847L111.305 3.61746L111.49 4.45224L112.603 5.56528L113.345 6.49282L114.458 8.71891L115.015 10.1102L115.108 11.0377L115.571 12.6146L115.942 14.2841L116.035 14.3769L116.313 16.603V17.716L115.942 18.1798L115.757 18.2725H115.108L114.644 17.8088L114.458 17.1595L114.366 16.3247V15.4899L114.644 14.7479L114.273 14.1914L114.087 13.2638L113.716 11.9653V11.316L113.253 10.203L113.067 9.83195H111.583L111.398 9.7392L111.49 8.99717L111.769 8.06963L111.861 7.60586L111.119 6.67833L110.841 6.49282L109.821 9.55369L109.635 9.9247L109.45 9.83195L110.655 6.30731L110.563 5.9363L109.45 5.10152L108.337 4.54499L107.224 4.35949H106.296L105.183 4.54499L104.441 4.82325L104.719 5.28702L105.369 6.12181L106.203 7.60586L107.038 9.9247V10.1102L108.615 9.9247H109.264V10.1102L108.429 10.203L100.267 10.6667L99.8961 10.7595L99.6178 11.8725L99.4323 12.8001L99.7106 12.8928H101.566L105.925 12.6146L106.853 12.7073L106.667 12.8928L105.74 13.1711L104.441 13.4493L103.421 13.8204L102.215 14.1914L101.658 14.6551L101.287 14.8406L101.195 15.2117L100.267 15.6754H99.4323L99.2468 15.9537L99.4323 16.0464L99.2468 16.232L99.154 17.1595V17.345H98.783L98.6903 17.6233L98.5975 19.9421L98.3193 20.2204H97.299L96.9279 19.6638V17.8088L96.5569 17.9943L96.1859 18.458L96.0932 18.6435V19.7566L96.3714 20.3131L97.0207 20.8696L97.2062 20.9624H98.5048L99.2468 20.3131L99.5251 19.7566L99.6178 18.7363H99.7106V20.1276L99.3395 20.6841L98.9685 21.0551H98.783V21.2406L97.8555 21.6117L97.7627 21.7044L96.7424 21.6117L96.1859 21.4262L95.3511 20.7769L95.0729 20.6841L95.1656 20.3131L95.2584 20.1276L94.7019 20.0348L94.5164 20.4059L94.0526 21.2406H93.6816L93.5888 21.7044L93.0323 21.5189L92.8468 20.5914L92.9395 19.4783V19.2001L93.2178 19.3856L92.8468 19.0146L92.9395 18.458L93.1251 18.2725H93.5888L93.8671 17.1595L93.5888 17.2522L92.9395 16.7885L92.8468 16.5102L92.754 14.5624L93.0323 14.4696V13.6348L93.2178 13.4493L97.5772 13.0783L97.8555 12.8001L98.3193 10.945V10.7595H97.1135V10.6667L98.2265 10.574L98.9685 8.71891L99.3395 7.60586L100.174 6.21456L101.009 5.19427L101.38 4.7305L100.267 4.45224L99.4323 4.35949H98.5975L97.4845 4.54499L96.3714 5.00876L95.5366 5.65804L94.7946 6.40007L94.4236 6.95659L93.4961 9.27543L92.9395 11.0377H91.0845L91.27 10.0175L91.8265 8.25514L92.4758 6.77108L93.3106 5.47253L94.4236 4.17398L95.0729 3.61746L96.5569 2.87543L97.67 2.59717ZM102.864 5.84354L102.029 6.77108L101.38 7.69862L100.453 9.46094L100.082 10.3885L100.174 10.574L104.534 10.2957L105.09 10.203L104.998 9.64644L104.441 8.16239L103.699 6.67833L103.05 5.84354H102.864Z" fill="#57B2E7"/>
<path d="M84.313 31.1653H84.4058V32.1856L84.684 32.4638L84.8695 32.1856L85.055 32.5566H85.2405L85.3333 32.3711L85.7043 32.2783L85.9826 32.7421L86.4463 33.0204V33.2986H86.6318V33.4841L87.0956 33.6696L87.4666 33.8551L87.7449 34.2262L88.1159 34.1334L88.2087 34.2262L88.3014 34.0406L88.7652 34.1334L89.4145 34.2262H89.971L90.1565 34.7827H90.6202V34.3189L90.9913 34.2262L91.084 34.0406H91.3623V35.7102L91.2695 36.545L91.084 39.6059L90.8985 42.3885L90.6202 45.7276L90.5275 46.7479L90.4347 48.8812L90.342 49.4377L90.2492 52.0348L90.1565 52.1276H89.6L87.9304 51.5711L84.4985 50.5508L82.0869 49.8088L82.1797 48.3247L83.0145 40.9972L84.1275 31.3508H84.313V31.1653Z" fill="#5497BE"/>
<path d="M72.9975 55.0957H73.8322L74.4815 55.4667L74.8525 56.116V57.0435L74.4815 57.6001L73.7395 58.1566L71.4206 59.4551L69.2873 60.4754L66.9685 61.4029L64.4641 62.2377L61.496 62.9798L58.1569 63.5363L56.1163 63.7218L54.2612 63.8145H52.4062L49.6235 63.629L46.8409 63.258L44.2438 62.7015L41.925 62.0522L39.6989 61.3102L37.2873 60.2899L35.3395 59.3624L33.2062 58.1566L32.6496 57.5073L32.5569 57.3218V56.3943L32.9279 55.745L33.5772 55.374H34.5047L37.1946 56.858L39.6062 57.9711L42.1105 58.8986L44.6149 59.6406L47.3047 60.1972L49.9946 60.5682L51.2004 60.6609H55.838L59.1772 60.2899L62.3308 59.6406L64.8351 58.8986L67.3395 57.9711L69.5656 56.9508L71.5134 55.9305L72.5337 55.2812L72.9975 55.0957Z" fill="#6B6097"/>
<path d="M119.189 5.65796H120.024L120.766 5.75071L120.858 5.84347L121.786 5.93622L121.971 6.02897L122.899 6.12173L122.992 6.21448L123.919 6.39999L124.568 6.49274L124.661 6.5855L125.589 6.67825L125.96 6.771L126.424 6.86376L127.351 6.95651L127.815 7.14202L128.279 7.23477L129.113 7.42028L130.041 7.60579L130.968 7.69854L132.081 7.9768L133.473 8.25506L133.658 8.34781L134.586 8.44057L135.884 8.90434L136.812 9.73912L137.368 10.6667L137.461 10.7594L137.554 11.6869L137.647 12.3362H137.461V13.3565L136.997 14.4696V14.9333L136.812 15.3043L136.719 15.7681L136.441 16.3246L136.255 17.2522L135.977 17.9942L135.513 19.6638L135.235 20.313L135.142 20.8696L134.864 20.9623V21.4261L134.493 20.9623L134.4 20.684L134.586 19.2927L134.679 18.6435V17.2522L134.771 15.7681L134.308 15.9536L133.38 16.7884L132.916 17.2522L132.452 17.5304H131.154L130.69 17.7159H129.855L129.021 17.1594L128.279 16.4174L127.537 15.2116L126.795 13.4493L126.424 12.1507L125.96 10.9449L125.496 10.2956L124.568 9.64636L124.476 9.08984L123.641 8.44057L122.528 7.42028L121.044 6.771L120.487 6.39999L119.467 6.12173L119.189 5.93622V5.65796Z" fill="#FCFCFD"/>
<path d="M119.003 40.9971H119.189L119.282 41.9246L119.745 41.8319V42.0174L120.673 42.2029L121.044 42.1101V42.3884L121.322 42.4811L120.766 46.3768L119.931 51.7565L119.56 53.5188L119.282 53.7971L117.89 54.2608L115.85 54.7246L114.366 54.9101H110.006L108.244 54.6319L104.626 53.8898L103.606 53.6116L102.771 53.3333L100.916 52.5913L99.9888 52.4058V52.313L102.586 52.0348H103.235V51.8492L107.038 51.2927L109.635 50.7362L112.418 49.9942L114.273 49.2521L115.386 48.6956L116.313 46.5623L117.055 44.7072L117.797 42.9449L118.447 42.2029L118.818 41.1826L119.003 40.9971Z" fill="#D8C1F9"/>
<path d="M98.3185 10.6667L98.4113 10.945L97.9475 12.8001L97.5765 13.1711L93.2171 13.5421L93.1243 13.8204V14.4696L92.7533 14.5624L92.6606 16.603L92.5678 17.2523L92.475 19.2001L92.3823 20.0349H92.1968L92.0113 21.2407L91.8258 21.5189L91.6403 22.0754L91.4548 22.8175H91.1765L91.0837 23.003L90.3417 22.9102L90.0634 23.003L89.5069 22.4465L89.0432 22.9102L88.5794 21.9827L88.2084 21.1479V20.7769H87.6519L87.3736 20.3131L87.0953 19.4783L86.8171 19.5711L86.5388 19.1073L86.2606 17.9015H86.1678L86.075 16.8812V15.9537L86.2606 13.6349L84.962 24.3943L84.591 29.032L84.3127 31.1653H84.22L84.3127 29.6812L84.591 26.5276L84.8692 23.4667L86.2606 11.5015L86.7243 11.316L90.991 11.0378L92.0113 10.945H93.1243L95.7214 10.7595L98.3185 10.6667Z" fill="#5497BE"/>
<path d="M6.30725 19.8494H8.90435V26.2494H15.3043V28.8465L15.2116 28.9392H8.90435V33.6697L7.88406 33.7624H6.30725V28.9392H0V26.2494H6.30725V19.8494Z" fill="#6B6097"/>
<path d="M83.571 40.8115L83.8492 41.1825L84.4058 42.4811L84.8695 42.3883L85.1478 42.7593L85.3333 43.4086L85.5188 43.8724L85.8898 43.7796L86.4463 43.5014L86.7246 43.2231L87.1884 43.1304L87.3739 43.4086L87.7449 43.0376H88.7652L89.3217 43.3159V43.5014H89.5072V43.6869L90.1565 43.8724V43.5014L90.713 43.5941V44.7999L90.5275 46.7478L90.4347 48.8811L90.342 49.4376L90.2492 52.0347L90.1565 52.1275H89.6L87.9304 51.5709L84.4985 50.5507L82.0869 49.8086L82.1797 48.3246L82.5507 44.9854L82.8289 44.2434L83.1072 42.3883L83.2927 40.997L83.571 40.8115Z" fill="#5497BE"/>
<path d="M110.84 6.3999L111.49 6.95642L111.953 7.6057L111.861 8.06947L111.49 9.36802L111.397 9.92454H112.232L113.066 10.0173L113.345 10.8521L113.437 11.8724L100.823 12.7999H99.5244L99.6172 11.9651L99.9882 10.7593L100.266 10.5738L108.429 10.11H109.264V9.92454H109.635L109.913 9.08976L110.562 7.04918L110.84 6.3999Z" fill="#5497BE"/>
<path d="M105.276 2.59717H108.336L109.821 3.15369L110.748 3.71021L111.119 3.98847L111.305 3.61746L111.49 4.45224L112.603 5.56528L113.345 6.49282L114.458 8.71891L115.015 10.1102L115.108 11.0377L115.571 12.6146L115.942 14.2841L116.035 14.3769L116.313 16.603V17.716L115.942 18.1798L115.757 18.2725H115.108L114.644 17.8088L114.458 17.1595L114.365 16.3247V15.4899L114.644 14.7479L114.273 14.1914L114.087 13.2638L113.716 11.9653V11.316L113.252 10.203L113.067 9.83195H111.583L111.397 9.7392L111.49 8.99717L111.768 8.06963L111.861 7.60586L111.119 6.67833L110.841 6.49282L109.821 9.55369L109.635 9.9247L109.45 9.83195L110.655 6.30731L110.563 5.9363L109.45 5.10152L108.336 4.54499L107.223 4.35949H106.296L105.09 4.54499L105.183 4.26673L105.925 4.08123H107.873L108.893 4.35949L109.079 4.45224V4.63775L109.913 4.82326L110.47 4.7305L109.079 3.3392L108.151 2.87543H105.647L104.07 3.3392L103.421 3.71021H102.957L103.235 3.43195L104.534 2.78268L105.276 2.59717Z" fill="#85B2CC"/>
<path d="M95.7217 10.7595H98.2261L98.1333 11.5016L97.6696 12.9856L95.629 13.1711L93.9594 13.2639H92.5681L89.1362 12.3363L87.4667 11.7798V11.5943L86.8174 11.5016V11.4088L88.3942 11.2233L92.0116 10.945H93.1246L95.7217 10.7595Z" fill="#5497BE"/>
<path d="M98.0409 2.68994H100.267L101.937 3.15371L102.771 3.61748V3.89574L101.751 4.63777L101.658 4.73052L100.916 4.63777L100.267 4.45226L99.4322 4.35951H98.5974L97.4843 4.54501L96.3713 5.00878L95.8148 5.3798L95.2582 5.65806L94.4235 6.58559H93.9597L93.8669 6.21458L94.238 5.47255H94.4235L94.3307 5.19429L94.5162 5.00878L94.7945 4.35951L95.2582 3.89574L96.093 3.33922L97.5771 2.7827L98.0409 2.68994Z" fill="#85B2CC"/>
<path d="M97.67 2.59717H100.545L101.844 2.96818V3.15369L100.267 2.78268H98.041L96.4642 3.24644L95.4439 3.80297L95.0729 3.98847L94.5164 5.10152L94.4236 5.47253H94.2381L94.0526 6.02905L93.9598 6.49282H94.4236L95.3511 5.47253L95.7222 5.37978L95.1656 6.02905L94.5164 6.77108L93.5888 8.99717L92.9395 11.0377H91.0845L91.27 10.0175L91.8265 8.25514L92.4758 6.77108L93.3106 5.47253L94.4236 4.17398L95.0729 3.61746L96.5569 2.87543L97.67 2.59717Z" fill="#85B2CC"/>
<path d="M20.3132 19.3855H23.8379V22.4464H20.3132V19.3855Z" fill="#6B6097"/>
<path d="M13.7275 19.3855H17.2522V22.4464H13.7275V19.3855Z" fill="#6B6097"/>
<path d="M104.07 5.10156L104.441 5.28707L105.09 6.0291L105.739 7.2349L106.018 7.51316L106.296 8.44069L106.667 9.64649V10.0175L109.264 9.92475V10.1103L108.429 10.203L106.574 10.2958H105.183L105.276 9.73924L104.533 7.97692L103.791 6.49287L103.513 6.12185V5.47258L104.07 5.10156Z" fill="#85B2CC"/>
<path d="M116.22 15.6753L116.684 15.9536L117.24 16.7883V18.0869L116.776 18.7362L116.034 19.1999L115.756 19.2927H115.014L114.365 19.0144L113.808 18.5507L113.53 18.0869V16.6028L114.179 15.8608H114.365L114.643 17.6231L114.921 18.0869L115.107 18.1796H115.756L116.22 17.7159V15.6753Z" fill="#57578E"/>
<path d="M96.742 17.7161L97.0203 17.8088V19.6639L97.2986 20.1277H98.3188L98.5043 19.9422L98.6899 17.7161L99.0609 17.9016L99.5246 18.4581L99.6174 18.7364V19.7566L99.3391 20.3132L98.6899 20.9624L98.5043 21.0552H97.2058L96.4638 20.4987L96.0928 20.0349L96 19.7566V18.6436L96.371 18.0871L96.742 17.7161Z" fill="#57578E"/>
<path d="M121.507 2.68994L122.157 2.87545H122.806L122.899 2.9682L123.826 3.06096L124.012 3.15371L124.939 3.24646L125.125 3.33922L126.052 3.43197L126.145 3.52472L127.072 3.71023L127.536 3.98849L127.443 4.35951L127.072 4.73052L126.609 4.63777L125.774 4.54501L124.846 4.35951L124.754 4.26675L123.27 3.98849L122.62 3.89574L122.342 3.71023H121.6L121.136 3.24646V2.87545L121.507 2.68994Z" fill="#F9F6FD"/>
<path d="M115.107 10.4812H116.128L119.467 11.1305L119.56 11.4087L116.035 11.687H115.478L115.107 10.7595V10.4812Z" fill="#5497BE"/>
<path d="M13.7275 19.3855H17.2522V22.4464H13.7275V19.3855ZM14.4696 19.571L13.913 19.6638V22.1681L16.9739 22.2609V19.571H14.4696Z" fill="#F6F2FD"/>
<path d="M121.507 2.68994L122.157 2.87545H122.806L122.899 2.9682L123.826 3.06096L124.012 3.15371L124.939 3.24646L125.125 3.33922L126.052 3.43197L126.145 3.52472L126.887 3.61748V3.71023H126.052L125.032 3.61748L124.939 3.52472L123.362 3.33922L123.455 3.71023L124.012 3.89574L124.846 3.98849L125.125 4.35951L124.012 4.174L122.991 3.89574L122.528 3.80298L122.342 3.71023H121.6L121.136 3.24646V2.87545L121.507 2.68994Z" fill="#E7DAFC"/>
<path d="M20.3132 19.3855H23.8379V22.4464H20.3132V19.3855ZM20.5915 19.571L20.4987 19.6638V22.1681L23.5596 22.2609V19.571H20.5915Z" fill="#F6F3FD"/>
<path d="M114.179 15.8608H114.365L114.643 17.6232L114.921 18.3652L114.829 18.4579V19.1072L114.365 19.0145L113.808 18.5507L113.53 18.0869V16.6029L114.179 15.8608Z" fill="#57578E"/>
<path d="M96.742 17.7161L97.0203 17.8088V19.6639L97.4841 20.4987V20.9624H97.0203L96.1855 20.2204L96 19.7566V18.6436L96.371 18.0871L96.742 17.7161Z" fill="#57578E"/>
<path d="M99.5243 3.15356H100.266L102.121 3.43183L102.307 3.61733L102.214 3.98835L101.75 4.35936H101.287L101.008 4.26661L99.3388 3.98835L99.1533 3.89559L99.0605 3.43183L99.5243 3.15356Z" fill="#85B2CC"/>
<path d="M82.0869 49.0667H82.3652V49.5304L83.4782 49.8087L86.9101 50.9217L89.0434 51.571L89.7855 51.942V52.1275L84.7768 50.6435L82.0869 49.8087V49.0667Z" fill="#5497BE"/>
<path d="M111.861 7.97681L112.325 8.16231L112.974 9.55362V9.83188H111.583L111.397 9.73913L111.49 8.9971L111.768 8.06956L111.861 7.97681Z" fill="#EBE1FC"/>
<path d="M112.974 9.55347L113.253 9.92448L113.716 11.223L113.809 11.594L113.902 12.4288L114.273 13.4491L114.458 14.3767L114.737 14.8404L114.458 15.4897L114.273 15.768L113.902 13.6346L113.624 12.5216L113.531 11.3158H113.345L113.067 10.11L111.397 9.92448V9.73897L112.974 9.83173V9.55347Z" fill="#57B2E7"/>
<path d="M116.035 17.9941L116.313 18.0869V18.2724L116.684 18.4579L116.777 18.7362L116.035 19.1999L115.757 19.2927H115.015L114.736 19.1072V18.4579L114.922 18.0869L115.107 18.1796H115.757L116.035 17.9941Z" fill="#57578E"/>
<path d="M104.07 5.10156L104.441 5.28707L104.904 5.75084L104.812 5.93635L104.533 6.0291L104.441 6.30736L104.533 7.32765L104.719 7.79142L104.626 8.16243L103.884 6.58562L103.513 6.12185V5.47258L104.07 5.10156Z" fill="#57B2E7"/>
<path d="M104.162 4.82324L104.811 5.37976L105.553 6.40005L106.295 7.88411L106.945 9.64643L107.037 10.1102L106.666 10.0174L106.295 8.62614L106.11 8.25513L105.924 7.32759L105.646 7.23484L104.997 6.02904L104.255 5.19426L103.698 5.37976L103.606 5.47252V6.12179L104.162 6.95658L104.069 7.23484L103.513 6.3073L103.142 5.93629L103.235 5.56527L103.977 4.916L104.162 4.82324Z" fill="#57B2E7"/>
<path d="M110.841 6.02905L111.212 6.21456L111.676 6.58557L112.325 7.42036L112.603 7.69862L112.51 7.97688H112.325L112.232 8.16239L111.954 7.97688L111.676 7.3276L110.934 6.49282L110.748 6.77108L109.82 9.55369L109.635 9.9247L109.449 9.83195L110.655 6.30731L110.841 6.02905Z" fill="#57B2E7"/>
<path d="M98.3189 10.6667L98.4116 10.945L97.9479 12.8001L97.5769 13.1711L93.2174 13.5421L93.1247 13.8204V14.4696L92.7537 14.5624L92.8464 13.3566L92.9392 13.2638L97.0203 12.9856H97.6696L98.0406 11.5015L98.3189 10.6667Z" fill="#57B2E7"/>
<path d="M98.4114 20.0347L98.8751 20.1274V20.3129H99.0606L98.9679 20.6839L98.5041 21.055H97.2056L97.4838 20.9622L97.2983 20.2202L98.3186 20.1274L98.4114 20.0347Z" fill="#57578E"/>
<path d="M94.238 17.0667L94.609 17.2522L94.7017 17.9014V19.2L94.4235 19.6638L94.0525 19.571L93.8669 19.2L93.9597 18.829L94.3307 17.8087L94.238 17.7159V17.0667Z" fill="#57B2E7"/>
<path d="M104.997 51.4783H105.739V51.571L102.493 52.0348L100.36 52.2203H99.3393L99.1538 52.0348L101.102 51.8493L103.42 51.6638L104.997 51.4783Z" fill="#57B2E7"/>
<path d="M106.296 9.55347L106.667 9.73897V10.0172L109.264 9.92448V10.11L108.429 10.2027L106.574 10.2955H105.183L105.275 10.0172L105.739 9.92448L105.832 9.73897L106.017 9.83173L106.11 9.64622L106.203 9.73897L106.296 9.55347Z" fill="#57B2E7"/>
<path d="M114.458 17.1594H114.551L114.829 17.9942L114.922 18.3652L114.829 18.458V19.1072L114.365 19.0145L113.901 18.5507V17.9015L114.087 17.6232H114.365L114.458 17.1594Z" fill="#57578E"/>
<path d="M129.113 4.17383L129.762 4.26658L130.04 4.6376L129.948 5.10136L129.669 5.28687H129.206L128.742 4.73035L128.927 4.35934L129.113 4.17383Z" fill="#F9F6FD"/>
<path d="M97.6693 2.59717H100.545L101.843 2.96818V3.15369L100.266 2.78268H98.0404L96.4636 3.24644L95.9998 3.3392L95.165 3.80297L94.9795 3.71021L95.907 3.15369L97.2056 2.68992L97.6693 2.59717Z" fill="#57B2E7"/>
<path d="M99.8959 10.7595L99.9886 11.0378L99.6176 12.2436L99.5249 12.8001L102.029 12.6146H102.678L102.586 12.8929L101.565 12.9856H99.7104L99.3394 12.8001L99.5249 11.8726L99.8959 10.7595Z" fill="#57B2E7"/>
<path d="M111.49 4.54492L112.139 5.10144L113.252 6.30724V6.49275L112.881 6.30724L112.232 6.02898H112.047L111.675 5.56521L111.583 4.82318L111.49 4.54492Z" fill="#57B2E7"/>
<path d="M82.736 44.8928H82.8287L82.736 46.3769L82.4577 48.3247L82.365 48.4175L82.2722 49.0667H82.1794L82.2722 47.4899L82.5505 44.9856L82.736 44.8928Z" fill="#5497BE"/>
<path d="M101.38 4.82324L101.473 5.1015L100.638 6.12179L99.9886 7.04933L99.4321 8.16237L99.1538 8.06962L99.8031 6.77107L100.916 5.28701L101.38 4.82324Z" fill="#57B2E7"/>
<path d="M96.8344 18.3652H96.9272L97.0199 19.6638L97.4837 20.4986V20.9623H97.0199L96.6489 20.6841L96.5562 19.8493H96.7417L96.8344 18.3652Z" fill="#57578E"/>
<path d="M112.974 9.55347L113.253 9.92448L113.716 11.223L113.809 11.594L113.624 11.9651L113.531 11.8723V11.3158H113.345L113.067 10.11L111.397 9.92448V9.73897L112.974 9.83173V9.55347Z" fill="#5497BE"/>
<path d="M83.1076 41.5537H83.2003V42.3885L82.9221 44.2436L82.7366 44.8928H82.6438L82.7366 43.4088L82.9221 41.832L83.1076 41.5537Z" fill="#5497BE"/>
<path d="M113.53 7.60571L113.809 7.69847L114.458 9.27528V9.46079H114.18L113.623 8.34774L113.438 7.88397L113.53 7.60571Z" fill="#57B2E7"/>
<path d="M136.811 14.2842H136.997V14.9335L136.811 15.3045L136.719 15.7682L136.44 16.3248L136.255 17.2523L135.977 17.9943L135.884 17.7161L136.069 16.603L136.533 15.5827L136.811 14.2842Z" fill="#E3D5FB"/>
<path d="M104.162 4.82324L104.719 5.28701L104.626 5.56527L104.255 5.19426L103.698 5.37976L103.606 5.47252V6.12179L104.162 6.95658L104.069 7.23484L103.513 6.3073L103.142 5.93629L103.235 5.56527L103.977 4.916L104.162 4.82324Z" fill="#57B2E7"/>
<path d="M115.015 10.2957L115.478 10.3884L115.107 10.4812L115.664 12.429L115.942 13.8203V14.2841L115.757 13.913L115.293 11.8725L114.922 10.6667L115.015 10.2957Z" fill="#57B2E7"/>
<path d="M112.139 8.5332H112.324L112.51 9.08972L112.695 9.55349H111.861L112.046 8.62596L112.139 8.5332Z" fill="#FCFCFD"/>
<path d="M99.2459 8.25513L99.3387 8.44063L98.8749 9.83194L98.5966 10.574H98.4111L98.5039 9.92469L99.0604 8.34788L99.2459 8.25513Z" fill="#57B2E7"/>
<path d="M100.916 8.25513L101.009 8.53339L100.267 10.1102L100.081 10.574H99.8955L99.9883 9.92469L100.916 8.25513Z" fill="#57B2E7"/>
<path d="M135.791 17.9941L135.884 18.3652L135.328 20.2202L135.142 20.8695H135.049V20.2202L135.513 18.7362L135.606 18.3652L135.791 17.9941Z" fill="#E4D5FB"/>
<path d="M116.221 15.6753L116.684 15.9536L116.777 16.5101L116.499 16.6956L116.313 16.9738L116.221 16.6028V15.6753Z" fill="#57578E"/>
<path d="M86.7248 11.3159H87.4668L87.0958 11.5014L87.4668 11.6869H86.8175L86.5393 12.2435L86.4465 12.8927H86.3538V11.7797L86.5393 11.4087L86.7248 11.3159Z" fill="#5497BE"/>
<path d="M97.2056 2.68994L97.2983 2.9682L96.4636 3.24646L95.9998 3.33922L95.165 3.80298L94.9795 3.71023L95.907 3.15371L97.2056 2.68994Z" fill="#57B2E7"/>
<path d="M104.719 5.37964L105.183 5.84341L105.832 6.95645L105.739 7.32746L104.997 6.02891L104.719 5.6579V5.37964Z" fill="#57B2E7"/>
<path d="M134.215 22.261L134.4 22.5392L134.215 23.2813L133.937 23.374L133.844 22.8175L134.215 22.261Z" fill="#FDFDFE"/>
<path d="M112.974 9.55347L113.253 9.92448V10.3882L113.067 10.11L111.397 9.92448V9.73897L112.974 9.83173V9.55347Z" fill="#5497BE"/>
<path d="M91.9189 26.342H92.0117L92.1044 27.5478L91.9189 28.3826H91.8262V26.7131L91.9189 26.342Z" fill="#57B2E7"/>
<path d="M92.1975 13.1709L92.9395 13.2637L92.8468 14.4694L92.6613 14.5622V13.9129L92.4758 13.7274L92.383 13.3564L92.1975 13.1709Z" fill="#57B2E7"/>
<path d="M82.4577 47.2117H82.5505V47.9537L82.365 48.4175L82.2722 49.0667H82.1794L82.2722 47.4899L82.4577 47.2117Z" fill="#5E9CC1"/>
<path d="M129.113 4.17383H129.577L129.206 4.35934L129.02 4.6376L129.206 5.00861L129.855 5.10136L129.669 5.28687H129.206L128.742 4.73035L128.927 4.35934L129.113 4.17383Z" fill="#E2D2FB"/>
<path d="M124.939 3.33911L126.052 3.43186L126.145 3.52462L126.887 3.61737V3.71013H126.052L125.031 3.61737L124.939 3.33911Z" fill="#E0CFFA"/>
<path d="M82.9221 43.3159H83.0148L82.9221 44.2435L82.7366 44.8927H82.6438L82.7366 43.4087L82.9221 43.3159Z" fill="#5497BE"/>
<path d="M120.765 11.8723L121.043 12.2433L121.136 12.7071L121.043 13.1709L120.858 13.0781L120.765 12.7071V11.8723Z" fill="#FBFAFD"/>
<path d="M102.771 5.75073V6.02899L101.751 7.23479V6.95653L102.586 5.84349L102.771 5.75073Z" fill="#57B2E7"/>
<path d="M99.8031 7.04932L99.8958 7.23482L99.4321 8.16236L99.1538 8.06961L99.5248 7.23482L99.8031 7.04932Z" fill="#57B2E7"/>
<path d="M93.2174 9.36816H93.3102L93.2174 10.2029L92.9392 10.8522L92.7537 10.7595L93.0319 9.92469L93.2174 9.36816Z" fill="#57B2E7"/>
<path d="M113.809 7.69849L114.087 7.97675L114.551 8.99704H114.273L113.809 7.88399V7.69849Z" fill="#57B2E7"/>
<path d="M115.015 10.2957L115.478 10.3884L115.107 10.4812L115.386 11.4087L115.107 11.3159L114.922 10.3884L115.015 10.2957Z" fill="#57B2E7"/>
</svg>
